<?xml version="1.0" standalone="no"?>
<!DOCTYPE svg PUBLIC "-//W3C//DTD SVG 20010904//EN"
 "http://www.w3.org/TR/2001/REC-SVG-20010904/DTD/svg10.dtd">
<svg version="1.0" xmlns="http://www.w3.org/2000/svg"
 width="360.000000pt" height="360.000000pt" viewBox="0 0 360.000000 360.000000"
 preserveAspectRatio="xMidYMid meet">

<g transform="translate(0.000000,360.000000) scale(0.100000,-0.100000)"
fill="#000000" stroke="none">
<path d="M2301 2680 c-44 -10 -80 -38 -102 -80 -18 -33 -19 -71 -19 -678 0
-721 -3 -690 71 -739 78 -52 188 -24 229 58 19 37 20 61 20 680 0 715 3 688
-69 734 -43 27 -84 35 -130 25z"/>
<path d="M2884 2681 c-46 -11 -89 -45 -108 -85 -14 -30 -16 -104 -16 -676 0
-718 -3 -688 71 -737 53 -35 125 -35 178 0 74 49 71 18 71 744 l0 648 -25 38
c-39 57 -106 83 -171 68z"/>
<path d="M815 2670 c-11 -4 -31 -20 -45 -35 l-25 -27 -3 -674 c-3 -745 -5
-714 61 -755 71 -44 71 -44 686 311 386 223 570 334 584 354 28 40 28 116 1
153 -18 24 -205 135 -968 574 -159 92 -196 109 -230 108 -23 0 -50 -4 -61 -9z"/>
</g>
</svg>
